<?xml version="1.0" encoding="UTF-8" standalone="no"?><!DOCTYPE svg PUBLIC "-//W3C//DTD SVG 1.1//EN" "http://www.w3.org/Graphics/SVG/1.1/DTD/svg11.dtd"><svg width="100%" height="100%" viewBox="0 0 3334 834" version="1.1" xmlns="http://www.w3.org/2000/svg" xmlns:xlink="http://www.w3.org/1999/xlink" xml:space="preserve" xmlns:serif="http://www.serif.com/" style="fill-rule:evenodd;clip-rule:evenodd;stroke-linejoin:round;stroke-miterlimit:2;"><g><path d="M749.825,690.029l-247.733,-330.171l-0,-178.112l57.662,-72.184c11.104,-14.095 1.279,-34.595 -16.658,-34.595l-252.859,-0c-17.937,-0 -27.762,20.5 -16.658,34.595l57.663,72.184l-0,178.112l-247.734,330.171c-20.929,28.188 -0.854,68.338 34.171,68.338l597.975,-0c35.025,-0 55.1,-40.15 34.171,-68.338Z" style="fill:url(#_Linear1);fill-rule:nonzero;"/><g><path d="M905.99,196.891l-0,301.921l103.45,-0l0,49.902l-156.542,0l-0,-351.823l53.092,0Z" style="fill:url(#_Linear2);fill-rule:nonzero;"/><path d="M1213.61,326.774l51.498,0l-0,221.94l-51.498,0l0,-23.242c-21.115,19.748 -43.826,29.622 -68.131,29.622c-30.686,0 -56.055,-11.089 -76.107,-33.268c-19.9,-22.634 -29.85,-50.89 -29.85,-84.765c-0,-33.269 9.95,-60.992 29.85,-83.171c19.9,-22.179 44.813,-33.268 74.739,-33.268c25.825,-0 48.991,10.633 69.499,31.901l0,-25.749Zm-121.68,110.287c0,21.267 5.697,38.585 17.09,51.953c11.697,13.52 26.433,20.28 44.206,20.28c18.989,-0 34.332,-6.532 46.029,-19.597c11.697,-13.52 17.545,-30.685 17.545,-51.497c0,-20.812 -5.848,-37.978 -17.545,-51.498c-11.697,-13.216 -26.888,-19.824 -45.573,-19.824c-17.622,0 -32.357,6.684 -44.206,20.052c-11.697,13.52 -17.546,30.23 -17.546,50.131Z" style="fill:url(#_Linear3);fill-rule:nonzero;"/><path d="M1381.09,163.851l-0,188.672c20.507,-21.268 43.75,-31.901 69.726,-31.901c29.926,-0 54.84,11.165 74.74,33.496c19.9,22.179 29.85,49.826 29.85,82.943c0,34.179 -10.026,62.434 -30.078,84.765c-19.9,22.179 -45.041,33.268 -75.423,33.268c-25.673,0 -48.611,-9.874 -68.815,-29.622l-0,23.242l-51.27,0l0,-384.863l51.27,-0Zm121.907,275.488c0,-21.267 -5.772,-38.585 -17.318,-51.953c-11.697,-13.672 -26.356,-20.508 -43.977,-20.508c-18.837,0 -34.18,6.608 -46.029,19.824c-11.697,13.065 -17.546,30.079 -17.546,51.042c0,21.571 5.773,38.813 17.318,51.725c11.545,13.217 26.736,19.825 45.573,19.825c17.773,-0 32.509,-6.608 44.206,-19.825c11.849,-13.368 17.773,-30.078 17.773,-50.13Z" style="fill:url(#_Linear4);fill-rule:nonzero;"/><path d="M1599.15,436.149c0,-32.053 11.469,-59.321 34.408,-81.803c22.938,-22.483 50.889,-33.724 83.854,-33.724c33.116,-0 61.219,11.317 84.31,33.952c22.786,22.634 34.179,50.434 34.179,83.398c0,33.268 -11.469,61.144 -34.407,83.626c-23.09,22.331 -51.422,33.496 -84.994,33.496c-33.268,0 -61.143,-11.393 -83.626,-34.179c-22.483,-22.483 -33.724,-50.738 -33.724,-84.766Zm52.409,0.912c-0,22.178 5.924,39.724 17.773,52.636c12.153,13.065 28.18,19.597 48.08,19.597c20.052,-0 36.078,-6.457 48.079,-19.369c12.001,-12.912 18.001,-30.154 18.001,-51.725c0,-21.571 -6,-38.813 -18.001,-51.725c-12.153,-13.065 -28.179,-19.597 -48.079,-19.597c-19.597,0 -35.471,6.532 -47.624,19.597c-12.153,13.064 -18.229,29.926 -18.229,50.586Z" style="fill:url(#_Linear5);fill-rule:nonzero;"/><path d="M1890.14,326.774l51.27,0l-0,19.824c9.418,-9.874 17.773,-16.634 25.065,-20.28c7.443,-3.797 16.254,-5.696 26.432,-5.696c13.52,-0 27.648,4.405 42.383,13.216l-23.47,46.94c-9.722,-6.988 -19.217,-10.482 -28.483,-10.482c-27.952,0 -41.927,21.116 -41.927,63.347l-0,115.071l-51.27,0l0,-221.94Z" style="fill:url(#_Linear6);fill-rule:nonzero;"/><path d="M2225.1,326.774l51.497,0l0,221.94l-51.497,0l0,-23.242c-21.115,19.748 -43.826,29.622 -68.131,29.622c-30.686,0 -56.055,-11.089 -76.107,-33.268c-19.9,-22.634 -29.85,-50.89 -29.85,-84.765c-0,-33.269 9.95,-60.992 29.85,-83.171c19.9,-22.179 44.813,-33.268 74.739,-33.268c25.825,-0 48.991,10.633 69.499,31.901l0,-25.749Zm-121.68,110.287c0,21.267 5.697,38.585 17.09,51.953c11.697,13.52 26.432,20.28 44.206,20.28c18.989,-0 34.332,-6.532 46.029,-19.597c11.697,-13.52 17.545,-30.685 17.545,-51.497c0,-20.812 -5.848,-37.978 -17.545,-51.498c-11.697,-13.216 -26.888,-19.824 -45.573,-19.824c-17.622,0 -32.357,6.684 -44.206,20.052c-11.697,13.52 -17.546,30.23 -17.546,50.131Z" style="fill:url(#_Linear7);fill-rule:nonzero;"/><path d="M2394.17,374.626l-0,174.088l-51.27,0l0,-174.088l-21.875,-0l0,-47.852l21.875,0l0,-81.348l51.27,0l-0,81.348l39.876,0l-0,47.852l-39.876,-0Z" style="fill:url(#_Linear8);fill-rule:nonzero;"/><path d="M2461.62,436.149c0,-32.053 11.47,-59.321 34.408,-81.803c22.938,-22.483 50.89,-33.724 83.854,-33.724c33.117,-0 61.22,11.317 84.31,33.952c22.787,22.634 34.18,50.434 34.18,83.398c-0,33.268 -11.469,61.144 -34.408,83.626c-23.09,22.331 -51.421,33.496 -84.993,33.496c-33.268,0 -61.144,-11.393 -83.627,-34.179c-22.482,-22.483 -33.724,-50.738 -33.724,-84.766Zm52.409,0.912c0,22.178 5.925,39.724 17.774,52.636c12.153,13.065 28.179,19.597 48.079,19.597c20.052,-0 36.079,-6.457 48.08,-19.369c12,-12.912 18.001,-30.154 18.001,-51.725c-0,-21.571 -6.001,-38.813 -18.001,-51.725c-12.153,-13.065 -28.18,-19.597 -48.08,-19.597c-19.596,0 -35.471,6.532 -47.623,19.597c-12.153,13.064 -18.23,29.926 -18.23,50.586Z" style="fill:url(#_Linear9);fill-rule:nonzero;"/><path d="M2752.61,326.774l51.269,0l0,19.824c9.418,-9.874 17.774,-16.634 25.065,-20.28c7.444,-3.797 16.255,-5.696 26.432,-5.696c13.52,-0 27.648,4.405 42.383,13.216l-23.47,46.94c-9.722,-6.988 -19.216,-10.482 -28.483,-10.482c-27.951,0 -41.927,21.116 -41.927,63.347l0,115.071l-51.269,0l-0,-221.94Z" style="fill:url(#_Linear10);fill-rule:nonzero;"/><path d="M3017.61,507.471l-99.805,-180.697l59.473,0l67.904,127.604l63.346,-127.604l57.878,0l-176.823,342.708l-58.561,0l86.588,-162.011Z" style="fill:url(#_Linear11);fill-rule:nonzero;"/></g></g><defs><linearGradient id="_Linear1" x1="0" y1="0" x2="1" y2="0" gradientUnits="userSpaceOnUse" gradientTransform="matrix(-1.09899e-13,-683.4,683.4,-1.09899e-13,416.667,758.367)"><stop offset="0" style="stop-color:#002f6c;stop-opacity:1"/><stop offset="0.72" style="stop-color:#1e88e5;stop-opacity:1"/><stop offset="1" style="stop-color:#64b5f6;stop-opacity:1"/></linearGradient><linearGradient id="_Linear2" x1="0" y1="0" x2="1" y2="0" gradientUnits="userSpaceOnUse" gradientTransform="matrix(3.10554e-14,-507.173,507.173,3.10554e-14,1962.71,664.879)"><stop offset="0" style="stop-color:#002f6c;stop-opacity:1"/><stop offset="0.72" style="stop-color:#1e88e5;stop-opacity:1"/><stop offset="1" style="stop-color:#64b5f6;stop-opacity:1"/></linearGradient><linearGradient id="_Linear3" x1="0" y1="0" x2="1" y2="0" gradientUnits="userSpaceOnUse" gradientTransform="matrix(3.10554e-14,-507.173,507.173,3.10554e-14,1962.71,664.879)"><stop offset="0" style="stop-color:#002f6c;stop-opacity:1"/><stop offset="0.72" style="stop-color:#1e88e5;stop-opacity:1"/><stop offset="1" style="stop-color:#64b5f6;stop-opacity:1"/></linearGradient><linearGradient id="_Linear4" x1="0" y1="0" x2="1" y2="0" gradientUnits="userSpaceOnUse" gradientTransform="matrix(3.10554e-14,-507.173,507.173,3.10554e-14,1962.71,664.879)"><stop offset="0" style="stop-color:#002f6c;stop-opacity:1"/><stop offset="0.72" style="stop-color:#1e88e5;stop-opacity:1"/><stop offset="1" style="stop-color:#64b5f6;stop-opacity:1"/></linearGradient><linearGradient id="_Linear5" x1="0" y1="0" x2="1" y2="0" gradientUnits="userSpaceOnUse" gradientTransform="matrix(3.10554e-14,-507.173,507.173,3.10554e-14,1962.71,664.879)"><stop offset="0" style="stop-color:#002f6c;stop-opacity:1"/><stop offset="0.72" style="stop-color:#1e88e5;stop-opacity:1"/><stop offset="1" style="stop-color:#64b5f6;stop-opacity:1"/></linearGradient><linearGradient id="_Linear6" x1="0" y1="0" x2="1" y2="0" gradientUnits="userSpaceOnUse" gradientTransform="matrix(3.10554e-14,-507.173,507.173,3.10554e-14,1962.71,664.879)"><stop offset="0" style="stop-color:#002f6c;stop-opacity:1"/><stop offset="0.72" style="stop-color:#1e88e5;stop-opacity:1"/><stop offset="1" style="stop-color:#64b5f6;stop-opacity:1"/></linearGradient><linearGradient id="_Linear7" x1="0" y1="0" x2="1" y2="0" gradientUnits="userSpaceOnUse" gradientTransform="matrix(3.10554e-14,-507.173,507.173,3.10554e-14,1962.71,664.879)"><stop offset="0" style="stop-color:#002f6c;stop-opacity:1"/><stop offset="0.72" style="stop-color:#1e88e5;stop-opacity:1"/><stop offset="1" style="stop-color:#64b5f6;stop-opacity:1"/></linearGradient><linearGradient id="_Linear8" x1="0" y1="0" x2="1" y2="0" gradientUnits="userSpaceOnUse" gradientTransform="matrix(3.10554e-14,-507.173,507.173,3.10554e-14,1962.71,664.879)"><stop offset="0" style="stop-color:#002f6c;stop-opacity:1"/><stop offset="0.72" style="stop-color:#1e88e5;stop-opacity:1"/><stop offset="1" style="stop-color:#64b5f6;stop-opacity:1"/></linearGradient><linearGradient id="_Linear9" x1="0" y1="0" x2="1" y2="0" gradientUnits="userSpaceOnUse" gradientTransform="matrix(3.10554e-14,-507.173,507.173,3.10554e-14,1962.71,664.879)"><stop offset="0" style="stop-color:#002f6c;stop-opacity:1"/><stop offset="0.72" style="stop-color:#1e88e5;stop-opacity:1"/><stop offset="1" style="stop-color:#64b5f6;stop-opacity:1"/></linearGradient><linearGradient id="_Linear10" x1="0" y1="0" x2="1" y2="0" gradientUnits="userSpaceOnUse" gradientTransform="matrix(3.10554e-14,-507.173,507.173,3.10554e-14,1962.71,664.879)"><stop offset="0" style="stop-color:#002f6c;stop-opacity:1"/><stop offset="0.72" style="stop-color:#1e88e5;stop-opacity:1"/><stop offset="1" style="stop-color:#64b5f6;stop-opacity:1"/></linearGradient><linearGradient id="_Linear11" x1="0" y1="0" x2="1" y2="0" gradientUnits="userSpaceOnUse" gradientTransform="matrix(3.10554e-14,-507.173,507.173,3.10554e-14,1962.71,664.879)"><stop offset="0" style="stop-color:#002f6c;stop-opacity:1"/><stop offset="0.72" style="stop-color:#1e88e5;stop-opacity:1"/><stop offset="1" style="stop-color:#64b5f6;stop-opacity:1"/></linearGradient></defs></svg>