<svg viewBox="0 0 3334 834" xmlns="http://www.w3.org/2000/svg" fill-rule="evenodd" clip-rule="evenodd"
    stroke-linejoin="round" stroke-miterlimit="2">
  <g fill-rule="nonzero">
    <path
        d="M749.825 690.029L502.092 359.858V181.746l57.662-72.184c11.104-14.095 1.279-34.595-16.658-34.595H290.237c-17.937 0-27.762 20.5-16.658 34.595l57.663 72.184v178.112L83.508 690.029c-20.929 28.188-.854 68.338 34.171 68.338h597.975c35.025 0 55.1-40.15 34.171-68.338z"
        fill="url(#_Linear1)" />
    <path d="M905.99 196.891v301.921h103.45v49.902H852.898V196.891h53.092z" fill="url(#_Linear2)" />
    <path
        d="M1213.61 326.774h51.498v221.94h-51.498v-23.242c-21.115 19.748-43.826 29.622-68.131 29.622-30.686 0-56.055-11.089-76.107-33.268-19.9-22.634-29.85-50.89-29.85-84.765 0-33.269 9.95-60.992 29.85-83.171 19.9-22.179 44.813-33.268 74.739-33.268 25.825 0 48.991 10.633 69.499 31.901v-25.749zm-121.68 110.287c0 21.267 5.697 38.585 17.09 51.953 11.697 13.52 26.433 20.28 44.206 20.28 18.989 0 34.332-6.532 46.029-19.597 11.697-13.52 17.545-30.685 17.545-51.497s-5.848-37.978-17.545-51.498c-11.697-13.216-26.888-19.824-45.573-19.824-17.622 0-32.357 6.684-44.206 20.052-11.697 13.52-17.546 30.23-17.546 50.131z"
        fill="url(#_Linear3)" />
    <path
        d="M1381.09 163.851v188.672c20.507-21.268 43.75-31.901 69.726-31.901 29.926 0 54.84 11.165 74.74 33.496 19.9 22.179 29.85 49.826 29.85 82.943 0 34.179-10.026 62.434-30.078 84.765-19.9 22.179-45.041 33.268-75.423 33.268-25.673 0-48.611-9.874-68.815-29.622v23.242h-51.27V163.851h51.27zm121.907 275.488c0-21.267-5.772-38.585-17.318-51.953-11.697-13.672-26.356-20.508-43.977-20.508-18.837 0-34.18 6.608-46.029 19.824-11.697 13.065-17.546 30.079-17.546 51.042 0 21.571 5.773 38.813 17.318 51.725 11.545 13.217 26.736 19.825 45.573 19.825 17.773 0 32.509-6.608 44.206-19.825 11.849-13.368 17.773-30.078 17.773-50.13z"
        fill="url(#_Linear4)" />
    <path
        d="M1599.15 436.149c0-32.053 11.469-59.321 34.408-81.803 22.938-22.483 50.889-33.724 83.854-33.724 33.116 0 61.219 11.317 84.31 33.952 22.786 22.634 34.179 50.434 34.179 83.398 0 33.268-11.469 61.144-34.407 83.626-23.09 22.331-51.422 33.496-84.994 33.496-33.268 0-61.143-11.393-83.626-34.179-22.483-22.483-33.724-50.738-33.724-84.766zm52.409.912c0 22.178 5.924 39.724 17.773 52.636 12.153 13.065 28.18 19.597 48.08 19.597 20.052 0 36.078-6.457 48.079-19.369 12.001-12.912 18.001-30.154 18.001-51.725s-6-38.813-18.001-51.725c-12.153-13.065-28.179-19.597-48.079-19.597-19.597 0-35.471 6.532-47.624 19.597-12.153 13.064-18.229 29.926-18.229 50.586z"
        fill="url(#_Linear5)" />
    <path
        d="M1890.14 326.774h51.27v19.824c9.418-9.874 17.773-16.634 25.065-20.28 7.443-3.797 16.254-5.696 26.432-5.696 13.52 0 27.648 4.405 42.383 13.216l-23.47 46.94c-9.722-6.988-19.217-10.482-28.483-10.482-27.952 0-41.927 21.116-41.927 63.347v115.071h-51.27v-221.94z"
        fill="url(#_Linear6)" />
    <path
        d="M2225.1 326.774h51.497v221.94H2225.1v-23.242c-21.115 19.748-43.826 29.622-68.131 29.622-30.686 0-56.055-11.089-76.107-33.268-19.9-22.634-29.85-50.89-29.85-84.765 0-33.269 9.95-60.992 29.85-83.171 19.9-22.179 44.813-33.268 74.739-33.268 25.825 0 48.991 10.633 69.499 31.901v-25.749zm-121.68 110.287c0 21.267 5.697 38.585 17.09 51.953 11.697 13.52 26.432 20.28 44.206 20.28 18.989 0 34.332-6.532 46.029-19.597 11.697-13.52 17.545-30.685 17.545-51.497s-5.848-37.978-17.545-51.498c-11.697-13.216-26.888-19.824-45.573-19.824-17.622 0-32.357 6.684-44.206 20.052-11.697 13.52-17.546 30.23-17.546 50.131z"
        fill="url(#_Linear7)" />
    <path d="M2394.17 374.626v174.088h-51.27V374.626h-21.875v-47.852h21.875v-81.348h51.27v81.348h39.876v47.852h-39.876z"
        fill="url(#_Linear8)" />
    <path
        d="M2461.62 436.149c0-32.053 11.47-59.321 34.408-81.803 22.938-22.483 50.89-33.724 83.854-33.724 33.117 0 61.22 11.317 84.31 33.952 22.787 22.634 34.18 50.434 34.18 83.398 0 33.268-11.469 61.144-34.408 83.626-23.09 22.331-51.421 33.496-84.993 33.496-33.268 0-61.144-11.393-83.627-34.179-22.482-22.483-33.724-50.738-33.724-84.766zm52.409.912c0 22.178 5.925 39.724 17.774 52.636 12.153 13.065 28.179 19.597 48.079 19.597 20.052 0 36.079-6.457 48.08-19.369 12-12.912 18.001-30.154 18.001-51.725s-6.001-38.813-18.001-51.725c-12.153-13.065-28.18-19.597-48.08-19.597-19.596 0-35.471 6.532-47.623 19.597-12.153 13.064-18.23 29.926-18.23 50.586z"
        fill="url(#_Linear9)" />
    <path
        d="M2752.61 326.774h51.269v19.824c9.418-9.874 17.774-16.634 25.065-20.28 7.444-3.797 16.255-5.696 26.432-5.696 13.52 0 27.648 4.405 42.383 13.216l-23.47 46.94c-9.722-6.988-19.216-10.482-28.483-10.482-27.951 0-41.927 21.116-41.927 63.347v115.071h-51.269v-221.94z"
        fill="url(#_Linear10)" />
    <path
        d="M3017.61 507.471l-99.805-180.697h59.473l67.904 127.604 63.346-127.604h57.878l-176.823 342.708h-58.561l86.588-162.011z"
        fill="url(#_Linear11)" />
  </g>
  <defs>
    <linearGradient id="_Linear1" x1="0" y1="0" x2="1" y2="0" gradientUnits="userSpaceOnUse"
        gradientTransform="rotate(-90 587.517 170.85) scale(683.4)">
      <stop offset="0" stop-color="#002f6c" />
      <stop offset=".72" stop-color="#1e88e5" />
      <stop offset="1" stop-color="#64b5f6" />
    </linearGradient>
    <linearGradient id="_Linear2" x1="0" y1="0" x2="1" y2="0" gradientUnits="userSpaceOnUse"
        gradientTransform="rotate(-90 1313.795 -648.916) scale(507.173)">
      <stop offset="0" stop-color="#002f6c" />
      <stop offset=".72" stop-color="#1e88e5" />
      <stop offset="1" stop-color="#64b5f6" />
    </linearGradient>
    <linearGradient id="_Linear3" x1="0" y1="0" x2="1" y2="0" gradientUnits="userSpaceOnUse"
        gradientTransform="rotate(-90 1313.795 -648.916) scale(507.173)">
      <stop offset="0" stop-color="#002f6c" />
      <stop offset=".72" stop-color="#1e88e5" />
      <stop offset="1" stop-color="#64b5f6" />
    </linearGradient>
    <linearGradient id="_Linear4" x1="0" y1="0" x2="1" y2="0" gradientUnits="userSpaceOnUse"
        gradientTransform="rotate(-90 1313.795 -648.916) scale(507.173)">
      <stop offset="0" stop-color="#002f6c" />
      <stop offset=".72" stop-color="#1e88e5" />
      <stop offset="1" stop-color="#64b5f6" />
    </linearGradient>
    <linearGradient id="_Linear5" x1="0" y1="0" x2="1" y2="0" gradientUnits="userSpaceOnUse"
        gradientTransform="rotate(-90 1313.795 -648.916) scale(507.173)">
      <stop offset="0" stop-color="#002f6c" />
      <stop offset=".72" stop-color="#1e88e5" />
      <stop offset="1" stop-color="#64b5f6" />
    </linearGradient>
    <linearGradient id="_Linear6" x1="0" y1="0" x2="1" y2="0" gradientUnits="userSpaceOnUse"
        gradientTransform="rotate(-90 1313.795 -648.916) scale(507.173)">
      <stop offset="0" stop-color="#002f6c" />
      <stop offset=".72" stop-color="#1e88e5" />
      <stop offset="1" stop-color="#64b5f6" />
    </linearGradient>
    <linearGradient id="_Linear7" x1="0" y1="0" x2="1" y2="0" gradientUnits="userSpaceOnUse"
        gradientTransform="rotate(-90 1313.795 -648.916) scale(507.173)">
      <stop offset="0" stop-color="#002f6c" />
      <stop offset=".72" stop-color="#1e88e5" />
      <stop offset="1" stop-color="#64b5f6" />
    </linearGradient>
    <linearGradient id="_Linear8" x1="0" y1="0" x2="1" y2="0" gradientUnits="userSpaceOnUse"
        gradientTransform="rotate(-90 1313.795 -648.916) scale(507.173)">
      <stop offset="0" stop-color="#002f6c" />
      <stop offset=".72" stop-color="#1e88e5" />
      <stop offset="1" stop-color="#64b5f6" />
    </linearGradient>
    <linearGradient id="_Linear9" x1="0" y1="0" x2="1" y2="0" gradientUnits="userSpaceOnUse"
        gradientTransform="rotate(-90 1313.795 -648.916) scale(507.173)">
      <stop offset="0" stop-color="#002f6c" />
      <stop offset=".72" stop-color="#1e88e5" />
      <stop offset="1" stop-color="#64b5f6" />
    </linearGradient>
    <linearGradient id="_Linear10" x1="0" y1="0" x2="1" y2="0" gradientUnits="userSpaceOnUse"
        gradientTransform="rotate(-90 1313.795 -648.916) scale(507.173)">
      <stop offset="0" stop-color="#002f6c" />
      <stop offset=".72" stop-color="#1e88e5" />
      <stop offset="1" stop-color="#64b5f6" />
    </linearGradient>
    <linearGradient id="_Linear11" x1="0" y1="0" x2="1" y2="0" gradientUnits="userSpaceOnUse"
        gradientTransform="rotate(-90 1313.795 -648.916) scale(507.173)">
      <stop offset="0" stop-color="#002f6c" />
      <stop offset=".72" stop-color="#1e88e5" />
      <stop offset="1" stop-color="#64b5f6" />
    </linearGradient>
  </defs>
</svg>
